<svg xmlns="http://www.w3.org/2000/svg" width="512" height="512" viewBox="0 0 512 512">
  <style type="text/css">
    .st0{fill:#FFFFFF;}
    .st1{fill:#152C70;}
  </style>
  <g>
    <path class="st0" d="M256,0C114.6,0,0,114.6,0,256c0,141.4,114.6,256,256,256c141.4,0,256-114.6,256-256C512,114.6,397.4,0,256,0z"/>
    <path class="st1" d="M256,102.4c-42.4,0-76.8,34.4-76.8,76.8c0,42.4,34.4,76.8,76.8,76.8c42.4,0,76.8-34.4,76.8-76.8		C332.8,136.8,298.4,102.4,256,102.4z"/>
    <path class="st1" d="M406.9,372.6c3.6,7.2,3.6,15.7,0,22.9c0.2-0.5,0,0,0,0l0,0l0,0.1l-0.1,0.2l-0.2,0.4c-0.2,0.3-0.3,0.6-0.6,1		c-0.4,0.8-1,1.7-1.7,2.8c-1.4,2.2-3.5,5.1-6.2,8.3c-5.4,6.5-13.7,14.6-25.5,22.5c-23.9,15.9-60.9,29.9-116.6,29.9		c-94.3,0-134-40.2-146.8-58.6c-7.7-11.1-6.9-24.1-2.2-33.5c18.9-37.7,57.4-61.5,99.5-61.5h94.6		C345.9,307.2,386.9,332.5,406.9,372.6z"/>
  </g>
</svg>
