<svg xmlns="http://www.w3.org/2000/svg" width="500" height="500" viewBox="0 0 500 500">
  <style type="text/css">
    .st0{fill:#FFFFFF;}
  </style>
  <path class="st0" d="M250.4,447.6h108c7,0,14.9-3.9,14.9-11V164.3H249.6H126v273.1c0,7,7.8,11,14.9,11h109.5	C250.4,448.4,250.4,447.6,250.4,447.6z M248.8,500H130.7c-21.9,0-41.5-16.4-49.3-30.5c-2.3-3.9-7-13.3-7-18.8V164.3	c-31.3,0-39.1,3.1-39.1-8.6c-0.8-46.9-4.7-43,19.6-43c0-12.5-2.3-36.8,21.9-36.8h71.2c0-39.1,25.8-75.9,67.3-75.9h35.2h34.4	c41.5,0,67.3,36.8,67.3,75.9h71.2c24.3,0,21.9,24.3,21.9,36.8c24.3,0,20.3-3.1,19.6,43c0,11.7-7.8,8.6-39.1,8.6v286.4	c0,5.5-4.7,14.9-7,18.8c-8.6,14.1-28.2,30.5-49.3,30.5H248.8z M249.6,75.1h46.9c-1.6-25-28.2-23.5-47.7-23.5s-46.2-1.6-47.7,23.5	H249.6z M169.8,194.1v223c0,13.3,21.9,8.6,45.4,8.6c4.7,0,6.3-1.6,6.3-6.3V192.5c0-10.2-15.6-6.3-43-6.3	C172.9,185.4,169.8,189.4,169.8,194.1z M330.2,194.1v223c0,13.3-21.9,8.6-45.4,8.6c-4.7,0-6.3-1.6-6.3-6.3V192.5	c0-10.2,15.6-6.3,43-6.3C326.3,185.4,330.2,189.4,330.2,194.1z"/>
</svg>
