<svg xmlns="http://www.w3.org/2000/svg" width="500" height="500" viewBox="0 0 500 500">
  <style type="text/css">
    .st0{fill:#FFFFFF;}
  </style>
  <g>
    <path class="st0" d="M47.8,334.5l34.3,24.2c11.7,9.4,20.3,17.2,30.4,27.3c5.5,5.5,9.4,9.4,14.8,14.8c7.8,7.8,35.1,42.9,36.7,51.5		c6.2-1.6,12.5-10.1,17.2-14.8L392.9,226c7.8-7.8,27.3-25.8,32.8-33.6c-15.6-30.4-24.2-43.7-48.4-68.7C353,99.5,339,90.9,308.6,75.3		C308.6,74.5,47.8,334.5,47.8,334.5z"/>
    <path class="st0" d="M341.3,43.3c14.1,3.1,54.6,39,65.6,50c18,18,39.8,43.7,51.5,65.6c3.9-2.3,41.4-39.8,41.4-41.4		c0-24.2-7-47.6-14.1-64.8c-3.1-7.8-7.8-14.1-14.1-20.3l-2.3-3.1c-7-7-14.1-11.7-24.2-15.6C435,9,390.5-5.1,380.4,1.9		c-3.1,2.3-15.6,15.6-19.5,20.3c-3.9,3.1-6.2,6.2-9.4,9.4C346.8,35.5,342.9,37.8,341.3,43.3z"/>
    <path class="st0" d="M0.2,384.5V500h115.5c4.7,0,12.5-10.9,16.4-14.1c-13.3-25-21.9-40.6-41.4-61.7c-3.1-3.1-3.9-5.5-7-8.6		c-11.7-11.7-35.1-28.9-50-38.3c-7-3.9-13.3-7-19.5-10.1C11.1,372,0.2,379.8,0.2,384.5z"/>
  </g>
</svg>
